<?xml version="1.0" encoding="UTF-8"?>
<!-- Generator: https://ezgif.com - animated SVG -->
<svg xmlns="http://www.w3.org/2000/svg" width="64" height="64" viewBox="0 0 64 64">
<style>
.f{visibility:hidden}
.f0{animation:f0 1.17s step-end infinite}
.f1{animation:f1 1.17s step-end infinite}
.f2{animation:f2 1.17s step-end infinite}
.f3{animation:f3 1.17s step-end infinite}
.f4{animation:f4 1.17s step-end infinite}
.f5{animation:f5 1.17s step-end infinite}
.f6{animation:f6 1.17s step-end infinite}
.f7{animation:f7 1.17s step-end infinite}
.f8{animation:f8 1.17s step-end infinite}
.f9{animation:f9 1.17s step-end infinite}
.f10{animation:f10 1.17s step-end infinite}
.f11{animation:f11 1.17s step-end infinite}
.f12{animation:f12 1.17s step-end infinite}
.f13{animation:f13 1.17s step-end infinite}
.f14{animation:f14 1.17s step-end infinite}
.f15{animation:f15 1.17s step-end infinite}
.f16{animation:f16 1.17s step-end infinite}
.f17{animation:f17 1.17s step-end infinite}
.f18{animation:f18 1.17s step-end infinite}
.f19{animation:f19 1.17s step-end infinite}
.f20{animation:f20 1.17s step-end infinite}
.f21{animation:f21 1.17s step-end infinite}
.f22{animation:f22 1.17s step-end infinite}
.f23{animation:f23 1.17s step-end infinite}
.f24{animation:f24 1.17s step-end infinite}
.f25{animation:f25 1.17s step-end infinite}
.f26{animation:f26 1.17s step-end infinite}
.f27{animation:f27 1.17s step-end infinite}
@keyframes f0{0%{visibility:hidden}0.0000%{visibility:visible}3.4188%{visibility:hidden}100%{visibility:hidden}}
@keyframes f1{0%{visibility:hidden}3.4188%{visibility:visible}6.8376%{visibility:hidden}100%{visibility:hidden}}
@keyframes f2{0%{visibility:hidden}6.8376%{visibility:visible}11.1111%{visibility:hidden}100%{visibility:hidden}}
@keyframes f3{0%{visibility:hidden}11.1111%{visibility:visible}14.5299%{visibility:hidden}100%{visibility:hidden}}
@keyframes f4{0%{visibility:hidden}14.5299%{visibility:visible}17.9487%{visibility:hidden}100%{visibility:hidden}}
@keyframes f5{0%{visibility:hidden}17.9487%{visibility:visible}21.3675%{visibility:hidden}100%{visibility:hidden}}
@keyframes f6{0%{visibility:hidden}21.3675%{visibility:visible}24.7863%{visibility:hidden}100%{visibility:hidden}}
@keyframes f7{0%{visibility:hidden}24.7863%{visibility:visible}28.2051%{visibility:hidden}100%{visibility:hidden}}
@keyframes f8{0%{visibility:hidden}28.2051%{visibility:visible}32.4786%{visibility:hidden}100%{visibility:hidden}}
@keyframes f9{0%{visibility:hidden}32.4786%{visibility:visible}35.8974%{visibility:hidden}100%{visibility:hidden}}
@keyframes f10{0%{visibility:hidden}35.8974%{visibility:visible}39.3162%{visibility:hidden}100%{visibility:hidden}}
@keyframes f11{0%{visibility:hidden}39.3162%{visibility:visible}42.7350%{visibility:hidden}100%{visibility:hidden}}
@keyframes f12{0%{visibility:hidden}42.7350%{visibility:visible}46.1538%{visibility:hidden}100%{visibility:hidden}}
@keyframes f13{0%{visibility:hidden}46.1538%{visibility:visible}49.5726%{visibility:hidden}100%{visibility:hidden}}
@keyframes f14{0%{visibility:hidden}49.5726%{visibility:visible}53.8462%{visibility:hidden}100%{visibility:hidden}}
@keyframes f15{0%{visibility:hidden}53.8462%{visibility:visible}57.2650%{visibility:hidden}100%{visibility:hidden}}
@keyframes f16{0%{visibility:hidden}57.2650%{visibility:visible}60.6838%{visibility:hidden}100%{visibility:hidden}}
@keyframes f17{0%{visibility:hidden}60.6838%{visibility:visible}64.1026%{visibility:hidden}100%{visibility:hidden}}
@keyframes f18{0%{visibility:hidden}64.1026%{visibility:visible}67.5214%{visibility:hidden}100%{visibility:hidden}}
@keyframes f19{0%{visibility:hidden}67.5214%{visibility:visible}70.9402%{visibility:hidden}100%{visibility:hidden}}
@keyframes f20{0%{visibility:hidden}70.9402%{visibility:visible}75.2137%{visibility:hidden}100%{visibility:hidden}}
@keyframes f21{0%{visibility:hidden}75.2137%{visibility:visible}78.6325%{visibility:hidden}100%{visibility:hidden}}
@keyframes f22{0%{visibility:hidden}78.6325%{visibility:visible}82.0513%{visibility:hidden}100%{visibility:hidden}}
@keyframes f23{0%{visibility:hidden}82.0513%{visibility:visible}85.4701%{visibility:hidden}100%{visibility:hidden}}
@keyframes f24{0%{visibility:hidden}85.4701%{visibility:visible}88.8889%{visibility:hidden}100%{visibility:hidden}}
@keyframes f25{0%{visibility:hidden}88.8889%{visibility:visible}92.3077%{visibility:hidden}100%{visibility:hidden}}
@keyframes f26{0%{visibility:hidden}92.3077%{visibility:visible}96.5812%{visibility:hidden}100%{visibility:hidden}}
@keyframes f27{0%{visibility:hidden}96.5812%{visibility:visible}100.0000%{visibility:hidden}100%{visibility:hidden}}
</style>
<g class="f f0">
<path d="M0 0 C0 3 0 3 -1.56 5.31 C-3.26 7.95 -3.26 7.95 -2.94 11.12 C-1.88 14.38 -0.91 15.31 2 17 C3.32 16.34 4.64 15.68 6 15 C7.32 16.65 8.64 18.3 10 20 C9.34 21.32 8.68 22.64 8 24 C10.2 26.71 11.38 27.89 14.88 28.5 C18.72 27.89 20.93 26.34 24 24 C25.8 30.63 26.73 36.49 24 43 C22.42 44.75 22.42 44.75 21 46 C20.44 45.51 19.89 45.01 19.31 44.5 C16.59 42.73 15.17 42.92 12 43 C11.34 42.34 10.68 41.68 10 41 C9.07 41 8.14 41 7.19 41 C3.85 41 2 40.34 -1 39 C-2.33 38.65 -3.66 38.31 -5 38 C-7.33 37.34 -9.67 36.67 -12 36 C-13.89 27.6 -13.89 27.6 -14.56 24.06 C-14.92 21.95 -14.92 21.95 -16 20 C-15.98 19.2 -15.96 18.39 -15.94 17.56 C-15.78 14.75 -15.78 14.75 -18 12 C-18.33 10 -18.67 8 -19 6 C-19.66 5.01 -20.32 4.02 -21 3 C-13.65 -1.02 -8.08 -1.17 0 0 Z " fill="#8A8B97" transform="translate(30,9)"/>
<path d="M0 0 C1.65 1.65 3.3 3.3 5 5 C3.69 7 3.69 7 2 9 C1.01 9 0.02 9 -1 9 C-1.15 10.14 -1.15 10.14 -1.31 11.31 C-2.08 14.31 -2.44 15.29 -5 17 C-8.62 17.75 -8.62 17.75 -12 18 C-12.33 17.67 -12.66 17.34 -13 17 C-12.78 13.15 -12.52 10.69 -10.19 7.56 C-8 6 -8 6 -4 6 C-3.85 5.07 -3.85 5.07 -3.69 4.12 C-3 2 -3 2 0 0 Z " fill="#9FA1AB" transform="translate(35,24)"/>
<path d="M0 0 C-0.66 0 -1.32 0 -2 0 C-2 0.99 -2 1.98 -2 3 C-2.99 3 -3.98 3 -5 3 C-5 2.34 -5 1.68 -5 1 C-5.66 1 -6.32 1 -7 1 C-7 1.66 -7 2.32 -7 3 C-8.65 2.67 -10.3 2.34 -12 2 C-12.33 3.32 -12.66 4.64 -13 6 C-13.99 5.01 -14.98 4.02 -16 3 C-10.75 0.13 -5.92 -2.05 0 0 Z " fill="#9EA0AA" transform="translate(25,9)"/>
</g>
<g class="f f1">
<path d="M0 0 C-0.37 1.05 -0.74 2.1 -1.12 3.19 C-2.06 7.25 -2.05 8.49 0 12 C1.13 13.96 1.13 13.96 3 15 C4.48 14.75 4.48 14.75 6 14.5 C9 14 9 14 10.94 15 C12.55 18.04 11.48 20.67 11 24 C12.54 26.17 13.57 26.89 16.16 27.55 C16.93 27.61 17.7 27.68 18.5 27.75 C19.66 27.87 19.66 27.87 20.84 27.98 C23.19 28.12 23.19 28.12 26 27 C27.84 30.68 27.37 34.97 27 39 C25.5 42.63 25.5 42.63 24 45 C23.48 44.53 22.97 44.05 22.44 43.56 C19.34 41.57 16.62 41.41 13 41 C12.51 40.51 12.51 40.51 12 40 C9.67 39.64 7.34 39.31 5 39 C2.62 38.62 2.62 38.62 0 38 C-0.73 37.86 -1.45 37.73 -2.2 37.59 C-4.75 36.97 -6.75 36.35 -9 35 C-10.72 32.13 -11.39 29.26 -12 26 C-12.21 25.15 -12.41 24.31 -12.62 23.44 C-12.94 21.36 -13.17 19.28 -13.38 17.19 C-14.05 11.57 -15.87 6.7 -19 2 C-12.15 -1.15 -7.35 -2.97 0 0 Z " fill="#8A8997" transform="translate(28,10)"/>
<path d="M0 0 C1.81 1.31 1.81 1.31 2.81 4.31 C0.81 7.31 0.81 7.31 -2.19 8.31 C-2.88 9.97 -3.55 11.64 -4.19 13.31 C-6.05 15.92 -7.09 16.29 -10.25 17.12 C-11.22 17.19 -12.19 17.25 -13.19 17.31 C-15.19 15.31 -15.19 15.31 -15.62 13 C-14.99 9.13 -13.2 7.71 -10.19 5.31 C-8.87 5.31 -7.55 5.31 -6.19 5.31 C-6.19 3.99 -6.19 2.67 -6.19 1.31 C-2.78 -0.88 -2.78 -0.88 0 0 Z " fill="#9FA1AB" transform="translate(37.1875,24.6875)"/>
<path d="M0 0 C-0.33 0.99 -0.66 1.98 -1 3 C-1.58 2.81 -2.16 2.63 -2.75 2.44 C-4.99 1.83 -4.99 1.83 -7.12 2.56 C-7.74 2.71 -8.36 2.85 -9 3 C-9.66 2.34 -10.32 1.68 -11 1 C-9.54 0.64 -8.08 0.29 -6.62 -0.06 C-5.41 -0.36 -5.41 -0.36 -4.16 -0.66 C-2 -1 -2 -1 0 0 Z " fill="#9D9DA9" transform="translate(24,9)"/>
</g>
<g class="f f2">
<path d="M0 0 C0.26 1 0.26 1 0.52 2.01 C1.93 7.17 3.19 11.06 7 15 C8.98 14.34 10.96 13.68 13 13 C14.32 14.65 15.64 16.3 17 18 C16.01 20.48 16.01 20.48 15 23 C19.87 27.74 24.44 29.41 31 31 C31.37 40.41 31.37 40.41 29 45 C28.28 44.34 27.56 43.68 26.81 43 C23.69 40.78 22.68 40.81 19 41 C18.01 40.34 17.02 39.68 16 39 C15.11 39.02 14.23 39.04 13.31 39.06 C9.67 38.99 7.36 38.09 4.04 36.73 C1.04 35.65 -1.84 35.33 -5 35 C-5.14 33.91 -5.29 32.81 -5.44 31.69 C-5.88 28.07 -5.88 28.07 -7 25 C-7.16 24.15 -7.33 23.31 -7.5 22.44 C-7.89 20.01 -7.89 20.01 -9 18 C-8.98 17.2 -8.96 16.39 -8.94 15.56 C-8.78 12.75 -8.78 12.75 -11 10 C-11.34 8.33 -11.67 6.67 -12 5 C-12.99 2.77 -12.99 2.77 -14 1 C-8.83 -0.79 -5.49 -1.12 0 0 Z " fill="#8A8998" transform="translate(24,10)"/>
<path d="M0 0 C1.65 1.65 3.3 3.3 5 5 C4.34 6.32 3.68 7.64 3 9 C1.68 9 0.36 9 -1 9 C-1.06 9.74 -1.12 10.48 -1.19 11.25 C-2.27 14.92 -3.77 16.02 -7 18 C-9.75 18.31 -9.75 18.31 -12 18 C-12.33 17.67 -12.66 17.34 -13 17 C-12.84 12.75 -12.64 10.66 -9.62 7.56 C-7 6 -7 6 -4 6 C-3.85 5.07 -3.85 5.07 -3.69 4.12 C-3 2 -3 2 0 0 Z " fill="#9FA2AB" transform="translate(36,23)"/>
</g>
<g class="f f3">
<path d="M0 0 C1.66 2.02 1.66 2.02 3.06 4.38 C3.57 5.17 4.08 5.97 4.6 6.8 C5.06 7.52 5.52 8.25 6 9 C7.73 11.66 7.73 11.66 10 13 C13.69 12.85 13.69 12.85 17 12 C18.62 13.69 18.62 13.69 20 16 C19.19 18.75 19.19 18.75 18 21 C22.73 25.38 27.27 29.02 33 32 C33.25 39.62 33.25 39.62 31 43 C30.65 42.53 30.3 42.05 29.94 41.56 C27.17 39.33 24.47 39.39 21 39 C20.51 38.51 20.51 38.51 20 38 C18.84 37.84 17.69 37.67 16.5 37.5 C13 37 13 37 12 36 C11.03 36.02 10.06 36.04 9.06 36.06 C6 36 6 36 4 34 C2.01 33.6 0.01 33.26 -2 33 C-2.12 32.36 -2.24 31.72 -2.37 31.06 C-3.36 25.95 -4.53 20.99 -6 16 C-6.34 14.33 -6.68 12.67 -7 11 C-7.33 10.01 -7.66 9.02 -8 8 C-8.14 7.18 -8.29 6.35 -8.44 5.5 C-8.9 2.77 -8.9 2.77 -11 0 C-6.48 -1.89 -4.36 -2.33 0 0 Z " fill="#8B8A98" transform="translate(22,11)"/>
<path d="M0 0 C2 0.75 2 0.75 4 3.75 C3.34 5.07 2.68 6.39 2 7.75 C0.68 7.75 -0.64 7.75 -2 7.75 C-2.08 8.49 -2.16 9.23 -2.25 10 C-3.18 13.39 -4.17 14.68 -7 16.75 C-10.19 17.06 -10.19 17.06 -13 16.75 C-13.33 16.42 -13.66 16.09 -14 15.75 C-13.84 11.5 -13.64 9.41 -10.62 6.31 C-8 4.75 -8 4.75 -5 4.75 C-4.88 4.11 -4.75 3.47 -4.62 2.81 C-4.42 2.13 -4.21 1.45 -4 0.75 C-2 -0.25 -2 -0.25 0 0 Z " fill="#9FA2AB" transform="translate(38,23.25)"/>
</g>
<g class="f f4">
<path d="M0 0 C2.26 2 4.18 4.26 6.12 6.56 C8.03 8.79 9.95 10.9 12 13 C14.84 13 17.24 12.6 20 12 C20.99 13.48 20.99 13.48 22 15 C21.72 16.07 21.44 17.14 21.16 18.25 C20.61 21.87 20.61 21.87 22.33 23.77 C24.33 25.6 26.38 27.32 28.5 29 C34.03 33.38 34.03 33.38 36 36 C35.97 39.94 35.97 39.94 35 43 C34.48 42.53 33.97 42.05 33.44 41.56 C30.34 39.57 27.62 39.41 24 39 C23.51 38.51 23.51 38.51 23 38 C21.84 37.84 20.69 37.67 19.5 37.5 C16 37 16 37 15 36 C14.03 36.02 13.06 36.04 12.06 36.06 C9 36 9 36 7 34 C5.01 33.6 3.01 33.26 1 33 C0.88 32.36 0.76 31.72 0.63 31.06 C-0.36 25.95 -1.53 20.99 -3 16 C-3.34 14.33 -3.68 12.67 -4 11 C-4.33 10.01 -4.66 9.02 -5 8 C-5.14 7.18 -5.29 6.35 -5.44 5.5 C-5.9 2.77 -5.9 2.77 -8 0 C-4.52 -1.16 -3.43 -1.24 0 0 Z " fill="#8B8B98" transform="translate(20,10)"/>
<path d="M0 0 C2 3 2 3 1.62 5.69 C1.32 6.83 1.32 6.83 1 8 C-0.32 8 -1.64 8 -3 8 C-3.04 8.91 -3.08 9.81 -3.12 10.75 C-4 14 -4 14 -6.81 16.44 C-10 18 -10 18 -12.31 17.81 C-14 17 -14 17 -15 16 C-15.38 13.75 -15.38 13.75 -15 11 C-12.44 7.95 -10.79 6.26 -7 5 C-6.3 3.68 -5.63 2.35 -5 1 C-3 0 -3 0 0 0 Z " fill="#9FA2AB" transform="translate(40,22)"/>
</g>
<g class="f f5">
<path d="M0 0 C2.83 1.24 5.57 2.64 8.31 4.06 C9.05 4.44 9.79 4.82 10.56 5.21 C12.37 6.13 14.19 7.06 16 8 C16.99 7.34 17.98 6.68 19 6 C19.99 6 20.98 6 22 6 C23.81 8.19 23.81 8.19 25 11 C24.61 11.76 24.22 12.53 23.81 13.31 C23.54 14.2 23.28 15.09 23 16 C24.25 18.15 25.75 19.96 27.32 21.88 C30.47 25.86 33.18 29.83 32.75 35 C32.5 35.66 32.26 36.32 32 37 C31.01 37 30.02 37 29 37 C28.34 36.34 27.68 35.68 27 35 C25.39 34.44 23.77 33.95 22.12 33.5 C19.55 32.79 17.24 32.13 14.87 30.91 C12.9 29.78 12.9 29.78 10 30 C9.34 29.34 8.68 28.68 8 28 C7.18 27.9 6.35 27.79 5.5 27.69 C4.68 27.46 3.85 27.23 3 27 C1.81 24.81 1.81 24.81 1 22 C-0.84 16.37 -2.95 11.01 -5.69 5.75 C-7 3 -7 3 -7 0 C-4.19 -1.41 -3.04 -0.86 0 0 Z " fill="#8A8A98" transform="translate(19,15)"/>
<path d="M0 0 C1.69 2.5 1.69 2.5 3 5 C1 8 1 8 -2 9 C-2.47 9.95 -2.95 10.9 -3.44 11.88 C-5.02 15.03 -5.87 16.43 -9 18 C-13.41 17.59 -13.41 17.59 -15 16 C-15.5 13.81 -15.5 13.81 -15 11 C-12.91 8.67 -10.61 6.72 -8 5 C-7.34 5 -6.68 5 -6 5 C-5.88 4.36 -5.75 3.72 -5.62 3.06 C-5.42 2.38 -5.21 1.7 -5 1 C-3 0 -3 0 0 0 Z " fill="#9FA2AB" transform="translate(41,21)"/>
</g>
<g class="f f6">
<path d="M0 0 C1.69 0.26 1.69 0.26 3.41 0.52 C6.14 1.11 8.05 1.92 10.5 3.19 C13.35 2.84 15.77 2.1 18.5 1.19 C19.82 2.84 21.14 4.49 22.5 6.19 C21.84 7.18 21.18 8.17 20.5 9.19 C20.88 12.21 22.17 14.57 23.56 17.25 C25.89 22.37 26.55 27.63 25.5 33.19 C24.51 33.85 23.52 34.51 22.5 35.19 C22.05 34.79 21.61 34.39 21.14 33.98 C15.23 28.77 15.23 28.77 8.14 25.44 C3.26 23.82 0.28 22.71 -2.12 18 C-2.66 16.84 -2.66 16.84 -3.21 15.65 C-5.53 11.23 -9.08 7.78 -12.5 4.19 C-11.05 0.44 -11.05 0.44 -8.78 -0.61 C-5.74 -0.88 -3.02 -0.48 0 0 Z " fill="#8A8A98" transform="translate(22.5,18.8125)"/>
<path d="M0 0 C1.65 1.65 3.3 3.3 5 5 C3.69 7 3.69 7 2 9 C1.01 9 0.02 9 -1 9 C-1.06 9.74 -1.12 10.48 -1.19 11.25 C-2.27 14.92 -3.77 16.02 -7 18 C-9.75 18.31 -9.75 18.31 -12 18 C-13 17 -13 17 -13.38 14.25 C-12.88 9.96 -11.29 8.68 -8 6 C-7.01 5.67 -6.02 5.34 -5 5 C-4.67 4.01 -4.34 3.02 -4 2 C-1.94 0.81 -1.94 0.81 0 0 Z " fill="#9FA3AB" transform="translate(40,20)"/>
</g>
<g class="f f7">
<path d="M0 0 C0.97 0.29 1.94 0.58 2.94 0.88 C3.93 0.21 4.92 -0.45 5.94 -1.12 C8.62 -0.75 8.62 -0.75 10.94 -0.12 C11.64 2.61 12.06 4.43 11.31 7.19 C10.9 10.12 11.26 11.03 12.38 13.69 C14.59 19.09 14.42 23.5 13.25 29.25 C11.61 32.53 10.3 32.71 6.94 33.88 C6.57 33.26 6.21 32.65 5.84 32.01 C2.72 26.99 0.58 24.11 -5.06 21.88 C-9 19.61 -11.74 17.2 -14.62 13.75 C-17.23 10.64 -19.08 9.01 -23.06 7.88 C-23.72 7.21 -24.38 6.55 -25.06 5.88 C-24.08 2.72 -23.05 1.87 -20.19 0.12 C-13.93 -2.27 -6.33 -2.05 0 0 Z " fill="#8A8A98" transform="translate(33.0625,21.125)"/>
<path d="M0 0 C1.68 0.29 3.34 0.62 5 1 C5.62 3.38 5.62 3.38 6 6 C5.34 6.66 4.68 7.32 4 8 C3.01 8 2.02 8 1 8 C0.92 8.74 0.84 9.48 0.75 10.25 C-0.18 13.64 -1.17 14.93 -4 17 C-7.19 17.31 -7.19 17.31 -10 17 C-11 16 -11 16 -11.44 13.25 C-10.97 9.74 -10.71 9.31 -8.19 7.12 C-5 5 -5 5 -2 5 C-1.86 4.36 -1.71 3.72 -1.56 3.06 C-1 1 -1 1 0 0 Z " fill="#A0A4AB" transform="translate(39,20)"/>
</g>
<g class="f f8">
<path d="M0 0 C2.47 2.48 2.47 2.48 5 5 C4.34 5.99 3.68 6.98 3 8 C3.2 10.27 3.2 10.27 3.88 12.69 C5.63 20.66 5.54 26.35 2.29 33.99 C1 36 1 36 -2.25 37.12 C-3.16 37.08 -4.06 37.04 -5 37 C-4.9 36.3 -4.79 35.6 -4.69 34.88 C-5.13 30.83 -7.09 28.65 -10 26 C-12.2 24.42 -14.44 22.96 -16.74 21.52 C-18.93 20.05 -20.68 18.46 -22.56 16.62 C-25.21 14.24 -26.87 13.62 -30.44 13.62 C-32.2 13.81 -32.2 13.81 -34 14 C-34.33 13.34 -34.66 12.68 -35 12 C-33.09 7.63 -31.99 5.6 -27.88 3.12 C-20.65 0.64 -14.27 0.76 -6.98 2.72 C-4.75 3.22 -4.75 3.22 -1.94 1.62 C-0.98 0.82 -0.98 0.82 0 0 Z " fill="#8A8A98" transform="translate(41,19)"/>
<path d="M0 0 C1.65 1.65 3.3 3.3 5 5 C3.69 7 3.69 7 2 9 C1.01 9 0.02 9 -1 9 C-1.08 9.74 -1.16 10.48 -1.25 11.25 C-2.18 14.64 -3.17 15.93 -6 18 C-9.19 18.31 -9.19 18.31 -12 18 C-12.33 17.67 -12.66 17.34 -13 17 C-12.84 12.75 -12.64 10.66 -9.62 7.56 C-7 6 -7 6 -4 6 C-4 4.68 -4 3.36 -4 2 C-2.68 1.34 -1.36 0.68 0 0 Z " fill="#A0A3AB" transform="translate(41,19)"/>
</g>
<g class="f f9">
<path d="M0 0 C1.94 0.87 1.94 0.87 3.31 2.62 C4.15 5.63 3.1 7.05 1.94 9.88 C2.6 10.87 3.26 11.86 3.94 12.88 C5.61 19.7 4.44 24.76 0.94 30.88 C-0.05 31.53 -1.04 32.2 -2.06 32.88 C-2.73 32.06 -2.73 32.06 -3.42 31.23 C-8.6 24.75 -8.6 24.75 -16 21.59 C-18.89 20.59 -19.73 18.94 -21.44 16.44 C-24.26 12.59 -26.18 10.71 -31.06 9.88 C-31.06 8.88 -31.06 7.89 -31.06 6.88 C-26.34 2.43 -22.02 0.59 -15.56 0.69 C-14.19 0.7 -14.19 0.7 -12.78 0.71 C-10.06 0.88 -10.06 0.88 -7.41 1.51 C-4.1 2.02 -3.23 -0.2 0 0 Z " fill="#8A8998" transform="translate(41.0625,20.125)"/>
<path d="M0 0 C1.94 0.19 1.94 0.19 4 1 C5.25 3.06 5.25 3.06 6 5 C4 8 4 8 1 9 C0.71 9.76 0.42 10.53 0.12 11.31 C-1.31 14.74 -2.84 16.09 -6 18 C-8.81 17.75 -8.81 17.75 -11 17 C-11.81 14.88 -11.81 14.88 -12 12 C-9.71 8.5 -8.24 6.39 -4.19 5.12 C-3.1 5.06 -3.1 5.06 -2 5 C-1.86 4.36 -1.71 3.72 -1.56 3.06 C-1 1 -1 1 0 0 Z " fill="#9FA3AB" transform="translate(39,20)"/>
</g>
<g class="f f10">
<path d="M0 0 C2.67 0.8 2.67 0.8 5.42 -1.54 C7.48 -1.41 7.48 -1.41 9.42 -0.54 C10.79 1.27 10.79 1.27 11.42 3.46 C10.89 4.42 10.89 4.42 10.36 5.4 C10.05 6.08 9.74 6.76 9.42 7.46 C10.7 10.02 10.7 10.02 12.42 12.46 C14.67 18.4 13.71 24.73 11.42 30.46 C9.3 29.51 7.66 28.71 6.04 27.02 C2.01 23.15 -3.35 21.85 -8.63 20.5 C-11.37 19.04 -11.51 17.33 -12.58 14.46 C-14.67 11.84 -14.67 11.84 -17.08 9.34 C-19.5 6.76 -21.62 4.4 -23.58 1.46 C-15.95 -4.59 -8.64 -2.85 0 0 Z " fill="#8B8998" transform="translate(32.58203125,22.5390625)"/>
<path d="M0 0 C2 0.81 2 0.81 3.25 2.88 C3.5 3.51 3.75 4.15 4 4.81 C2 7.81 2 7.81 -1 8.81 C-2.02 10.8 -3.02 12.8 -4 14.81 C-7.44 17.1 -8.99 16.99 -13 16.81 C-13.81 14.69 -13.81 14.69 -14 11.81 C-11.71 8.31 -10.24 6.2 -6.19 4.94 C-5.1 4.88 -5.1 4.88 -4 4.81 C-4 3.49 -4 2.17 -4 0.81 C-2 -0.19 -2 -0.19 0 0 Z " fill="#A0A4AC" transform="translate(40,21.1875)"/>
</g>
<g class="f f11">
<path d="M0 0 C1.53 1.93 2.69 3.87 3.82 6.05 C5 8.3 5 8.3 8 10 C8.99 9.34 9.98 8.68 11 8 C11.99 8 12.98 8 14 8 C14.99 9.48 14.99 9.48 16 11 C15.73 11.93 15.46 12.86 15.19 13.81 C14.64 16.95 14.64 16.95 16.38 18.65 C19.13 21 22 23 25 25 C24.66 30.38 24.31 34.53 21 39 C19.87 38.4 18.73 37.8 17.56 37.19 C12.44 34.63 7.12 32.72 1.54 31.43 C-4.43 29.9 -4.43 29.9 -6.16 27.17 C-6.91 25.13 -7.48 23.11 -8 21 C-9.04 18.73 -10.19 16.69 -11.5 14.56 C-13.49 11.17 -14.76 7.72 -16 4 C-4.27 -1.19 -4.27 -1.19 0 0 Z " fill="#8A8A98" transform="translate(26,14)"/>
<path d="M0 0 C2 3 2 3 1.62 5.69 C1.32 6.83 1.32 6.83 1 8 C-0.32 8 -1.64 8 -3 8 C-3.08 8.74 -3.16 9.48 -3.25 10.25 C-4.17 13.61 -5.26 14.87 -8 17 C-10.62 17.88 -10.62 17.88 -13 18 C-15 16 -15 16 -15.25 13.56 C-15 11 -15 11 -13 8 C-12.34 8 -11.68 8 -11 8 C-11 7.34 -11 6.68 -11 6 C-10.38 5.92 -9.76 5.84 -9.12 5.75 C-6.82 5.2 -6.82 5.2 -5.88 3 C-5.59 2.34 -5.3 1.68 -5 1 C-3 0 -3 0 0 0 Z " fill="#9FA2AB" transform="translate(40,22)"/>
<path d="M0 0 C0 0.33 0 0.66 0 1 C-1 1.27 -1 1.27 -2.01 1.55 C-6.73 2.9 -10.93 4.15 -15 7 C-15.33 6.01 -15.66 5.02 -16 4 C-5.63 -0.59 -5.63 -0.59 0 0 Z " fill="#9CA0A8" transform="translate(26,14)"/>
</g>
<g class="f f12">
<path d="M0 0 C0.66 0.66 1.32 1.32 2 2 C1.5 2.52 1.01 3.03 0.5 3.56 C-1.55 6.89 -1.42 9.16 -1 13 C-0.04 15.13 -0.04 15.13 2 16 C2.99 15.84 3.98 15.67 5 15.5 C8 15 8 15 9.94 16.06 C11.5 18.91 10.75 20.94 10 24 C12.13 26.19 12.13 26.19 15 28 C19.29 27.91 21.81 26.82 25 24 C26.61 25.61 26.21 27.34 26.25 29.56 C26.2 34.72 25.24 38.36 23 43 C22.01 43.66 21.02 44.32 20 45 C19.34 44.34 18.68 43.68 18 43 C15.73 42.4 13.43 41.9 11.12 41.44 C3.58 39.92 3.58 39.92 0 39 C-0.83 38.83 -1.66 38.66 -2.51 38.49 C-5.18 37.86 -7.53 37.21 -10 36 C-11.56 32.44 -11.56 32.44 -12 29 C-12.33 28.34 -12.66 27.68 -13 27 C-13.14 26.24 -13.29 25.47 -13.44 24.69 C-13.91 22 -13.91 22 -15 19.62 C-16 17 -16 17 -16.44 13.38 C-17.02 9.89 -17.4 9.15 -20 7 C-20 6.34 -20 5.68 -20 5 C-13.15 1.35 -7.92 -0.45 0 0 Z " fill="#8A8A97" transform="translate(30,8)"/>
<path d="M0 0 C2.06 0.69 2.06 0.69 4 2 C4.81 4 4.81 4 5 6 C4.67 6.66 4.34 7.32 4 8 C2.68 8 1.36 8 0 8 C-0.04 8.72 -0.08 9.44 -0.12 10.19 C-1.39 14.24 -3.5 15.71 -7 18 C-9.88 17.81 -9.88 17.81 -12 17 C-12.49 10.66 -12.49 10.66 -10.25 7.62 C-8 6 -8 6 -5.88 5.5 C-5.26 5.34 -4.64 5.17 -4 5 C-2.85 3.03 -2.85 3.03 -2 1 C-1.34 0.67 -0.68 0.34 0 0 Z " fill="#9FA2AB" transform="translate(36,23)"/>
<path d="M0 0 C0 0.99 0 1.98 0 3 C-1.32 3 -2.64 3 -4 3 C-4.33 3.99 -4.66 4.98 -5 6 C-5.99 5.67 -6.98 5.34 -8 5 C-8 4.34 -8 3.68 -8 3 C-2.25 0 -2.25 0 0 0 Z " fill="#9E9FAB" transform="translate(18,10)"/>
<path d="M0 0 C3.38 -0.12 3.38 -0.12 7 0 C7.66 0.66 8.32 1.32 9 2 C8 3 8 3 4.94 3.06 C3.97 3.04 3 3.02 2 3 C2 2.34 2 1.68 2 1 C1.34 0.67 0.68 0.34 0 0 Z " fill="#9FA2AB" transform="translate(23,8)"/>
</g>
<g class="f f13">
<path d="M0 0 C-1 2 -2 4 -3 6 C-3.41 10.69 -3.41 10.69 -1.88 15 C0.1 16.3 0.1 16.3 3 15.5 C6 15 6 15 7.94 16.06 C9.5 18.91 8.75 20.94 8 24 C10.13 26.19 10.13 26.19 13 28 C17.29 27.91 19.81 26.82 23 24 C25.83 29.82 24.63 34.99 23 41 C22.38 42.35 21.72 43.7 21 45 C20.48 44.69 19.97 44.38 19.44 44.06 C16.34 42.71 13.33 42.44 10 42 C9.51 41.51 9.51 41.51 9 41 C6.67 40.64 4.34 40.31 2 40 C-1.52 39.44 -2.96 39.03 -6 37 C-7.99 36.61 -9.99 36.27 -12 36 C-12.31 34.89 -12.62 33.77 -12.94 32.62 C-13.82 29.21 -13.82 29.21 -15 27 C-15.36 25.34 -15.69 23.67 -16 22 C-16.45 19.64 -16.91 17.29 -17.38 14.94 C-17.61 13.73 -17.84 12.52 -18.09 11.28 C-18.96 8.14 -19.86 6.4 -22 4 C-14.76 -0.63 -8.44 -0.43 0 0 Z " fill="#8A8A98" transform="translate(31,9)"/>
<path d="M0 0 C2.06 0.69 2.06 0.69 4 2 C4.88 4 4.88 4 5 6 C4.34 6.66 3.68 7.32 3 8 C2.01 8 1.02 8 0 8 C-0.08 8.74 -0.16 9.48 -0.25 10.25 C-1.18 13.68 -2.11 14.94 -5 17 C-8.75 17.25 -8.75 17.25 -12 17 C-12.72 10.92 -12.72 10.92 -10.77 8.42 C-8.1 6.13 -6.57 5 -3 5 C-2.88 4.36 -2.75 3.72 -2.62 3.06 C-2.42 2.38 -2.21 1.7 -2 1 C-1.34 0.67 -0.68 0.34 0 0 Z " fill="#9FA3AB" transform="translate(35,24)"/>
<path d="M0 0 C-0.33 0.99 -0.66 1.98 -1 3 C-1.66 3 -2.32 3 -3 3 C-3 2.34 -3 1.68 -3 1 C-3.66 1 -4.32 1 -5 1 C-5 1.99 -5 2.98 -5 4 C-6.65 3.67 -8.3 3.34 -10 3 C-10.33 4.32 -10.66 5.64 -11 7 C-11.99 6.01 -12.98 5.02 -14 4 C-9.23 1.29 -5.66 -0.57 0 0 Z " fill="#9EA2AA" transform="translate(23,9)"/>
<path d="M0 0 C1.98 0 3.96 0 6 0 C5.67 0.99 5.34 1.98 5 3 C3.35 3 1.7 3 0 3 C0 2.01 0 1.02 0 0 Z " fill="#9EA3AA" transform="translate(25,9)"/>
</g>
<g class="f f14">
<path d="M0 0 C0 3 0 3 -1.56 5.31 C-3.26 7.95 -3.26 7.95 -2.94 11.12 C-1.88 14.38 -0.91 15.31 2 17 C3.32 16.34 4.64 15.68 6 15 C7.32 16.65 8.64 18.3 10 20 C9.34 21.32 8.68 22.64 8 24 C10.2 26.71 11.38 27.89 14.88 28.5 C18.72 27.89 20.93 26.34 24 24 C25.8 30.63 26.73 36.49 24 43 C22.42 44.75 22.42 44.75 21 46 C20.44 45.51 19.89 45.01 19.31 44.5 C16.59 42.73 15.17 42.92 12 43 C11.34 42.34 10.68 41.68 10 41 C9.07 41 8.14 41 7.19 41 C3.85 41 2 40.34 -1 39 C-2.33 38.65 -3.66 38.31 -5 38 C-7.33 37.34 -9.67 36.67 -12 36 C-13.89 27.6 -13.89 27.6 -14.56 24.06 C-14.92 21.95 -14.92 21.95 -16 20 C-15.98 19.2 -15.96 18.39 -15.94 17.56 C-15.78 14.75 -15.78 14.75 -18 12 C-18.33 10 -18.67 8 -19 6 C-19.66 5.01 -20.32 4.02 -21 3 C-13.65 -1.02 -8.08 -1.17 0 0 Z " fill="#8B8B98" transform="translate(30,9)"/>
<path d="M0 0 C1.65 1.65 3.3 3.3 5 5 C3.69 7 3.69 7 2 9 C1.01 9 0.02 9 -1 9 C-1.06 9.74 -1.12 10.48 -1.19 11.25 C-2.27 14.92 -3.77 16.02 -7 18 C-9.75 18.31 -9.75 18.31 -12 18 C-12.33 17.67 -12.66 17.34 -13 17 C-12.78 13.15 -12.52 10.69 -10.19 7.56 C-8 6 -8 6 -4 6 C-3.85 5.07 -3.85 5.07 -3.69 4.12 C-3 2 -3 2 0 0 Z " fill="#9FA1AB" transform="translate(35,24)"/>
<path d="M0 0 C-0.66 0 -1.32 0 -2 0 C-2.33 0.99 -2.66 1.98 -3 3 C-3.66 3 -4.32 3 -5 3 C-5 2.34 -5 1.68 -5 1 C-5.66 1 -6.32 1 -7 1 C-7 1.66 -7 2.32 -7 3 C-8.65 2.67 -10.3 2.34 -12 2 C-12.33 3.32 -12.66 4.64 -13 6 C-13.99 5.01 -14.98 4.02 -16 3 C-10.75 0.13 -5.92 -2.05 0 0 Z " fill="#9EA1AB" transform="translate(25,9)"/>
</g>
<g class="f f15">
<path d="M0 0 C-0.37 1.05 -0.74 2.1 -1.12 3.19 C-2.06 7.25 -2.05 8.49 0 12 C1.13 13.96 1.13 13.96 3 15 C4.48 14.75 4.48 14.75 6 14.5 C9 14 9 14 10.94 15 C12.55 18.04 11.48 20.67 11 24 C12.54 26.17 13.57 26.89 16.16 27.55 C16.93 27.61 17.7 27.68 18.5 27.75 C19.66 27.87 19.66 27.87 20.84 27.98 C23.19 28.12 23.19 28.12 26 27 C27.84 30.68 27.37 34.97 27 39 C25.5 42.63 25.5 42.63 24 45 C23.48 44.53 22.97 44.05 22.44 43.56 C19.34 41.57 16.62 41.41 13 41 C12.51 40.51 12.51 40.51 12 40 C9.67 39.64 7.34 39.31 5 39 C2.62 38.62 2.62 38.62 0 38 C-0.73 37.86 -1.45 37.73 -2.2 37.59 C-4.75 36.97 -6.75 36.35 -9 35 C-10.72 32.13 -11.39 29.26 -12 26 C-12.21 25.15 -12.41 24.31 -12.62 23.44 C-12.94 21.36 -13.17 19.28 -13.38 17.19 C-14.05 11.57 -15.87 6.7 -19 2 C-12.15 -1.15 -7.35 -2.97 0 0 Z " fill="#8B8A98" transform="translate(28,10)"/>
<path d="M0 0 C1.81 1.31 1.81 1.31 2.81 4.31 C1.88 6.5 1.88 6.5 0.81 8.31 C-0.51 8.31 -1.83 8.31 -3.19 8.31 C-3.25 9.05 -3.31 9.8 -3.38 10.56 C-4.46 14.24 -5.92 15.38 -9.19 17.31 C-13.48 17.02 -13.48 17.02 -15.19 15.31 C-15.56 13.06 -15.56 13.06 -15.19 10.31 C-12.94 7.5 -12.94 7.5 -10.19 5.31 C-8.87 5.31 -7.55 5.31 -6.19 5.31 C-6.19 3.99 -6.19 2.67 -6.19 1.31 C-2.78 -0.88 -2.78 -0.88 0 0 Z " fill="#9FA1AB" transform="translate(37.1875,24.6875)"/>
<path d="M0 0 C-0.99 1.48 -0.99 1.48 -2 3 C-2.66 3 -3.32 3 -4 3 C-4 2.34 -4 1.68 -4 1 C-4.66 1 -5.32 1 -6 1 C-6 1.66 -6 2.32 -6 3 C-7.65 2.67 -9.3 2.34 -11 2 C-7.55 -0.3 -3.95 -1.98 0 0 Z " fill="#9EA0AA" transform="translate(24,9)"/>
</g>
<g class="f f16">
<path d="M0 0 C0.26 1 0.26 1 0.52 2.01 C1.93 7.17 3.19 11.06 7 15 C8.98 14.34 10.96 13.68 13 13 C14.32 14.65 15.64 16.3 17 18 C16.01 20.48 16.01 20.48 15 23 C19.87 27.74 24.44 29.41 31 31 C31.37 40.41 31.37 40.41 29 45 C28.28 44.34 27.56 43.68 26.81 43 C23.69 40.78 22.68 40.81 19 41 C18.01 40.34 17.02 39.68 16 39 C15.11 39.02 14.23 39.04 13.31 39.06 C9.67 38.99 7.36 38.09 4.04 36.73 C1.04 35.65 -1.84 35.33 -5 35 C-5.14 33.91 -5.29 32.81 -5.44 31.69 C-5.88 28.07 -5.88 28.07 -7 25 C-7.16 24.15 -7.33 23.31 -7.5 22.44 C-7.89 20.01 -7.89 20.01 -9 18 C-8.98 17.2 -8.96 16.39 -8.94 15.56 C-8.78 12.75 -8.78 12.75 -11 10 C-11.34 8.33 -11.67 6.67 -12 5 C-12.99 2.77 -12.99 2.77 -14 1 C-8.83 -0.79 -5.49 -1.12 0 0 Z " fill="#8B8999" transform="translate(24,10)"/>
<path d="M0 0 C1.65 1.65 3.3 3.3 5 5 C4.34 6.32 3.68 7.64 3 9 C1.68 9 0.36 9 -1 9 C-1.06 9.74 -1.12 10.48 -1.19 11.25 C-2.27 14.92 -3.77 16.02 -7 18 C-9.75 18.31 -9.75 18.31 -12 18 C-12.33 17.67 -12.66 17.34 -13 17 C-12.84 12.75 -12.64 10.66 -9.62 7.56 C-7 6 -7 6 -4 6 C-3.85 5.07 -3.85 5.07 -3.69 4.12 C-3 2 -3 2 0 0 Z " fill="#9FA2AB" transform="translate(36,23)"/>
</g>
<g class="f f17">
<path d="M0 0 C1.66 2.02 1.66 2.02 3.06 4.38 C3.57 5.17 4.08 5.97 4.6 6.8 C5.06 7.52 5.52 8.25 6 9 C7.73 11.66 7.73 11.66 10 13 C13.69 12.85 13.69 12.85 17 12 C18.62 13.69 18.62 13.69 20 16 C19.19 18.75 19.19 18.75 18 21 C22.73 25.38 27.27 29.02 33 32 C33.05 33.46 33.09 34.92 33.12 36.38 C33.15 37.19 33.17 38 33.2 38.84 C33 41 33 41 31 43 C30.28 42.34 29.56 41.68 28.81 41 C25.74 38.82 24.63 38.7 21 39 C20.51 38.51 20.51 38.51 20 38 C18.84 37.84 17.69 37.67 16.5 37.5 C13 37 13 37 12 36 C11.03 36.02 10.06 36.04 9.06 36.06 C6 36 6 36 4 34 C2.01 33.6 0.01 33.26 -2 33 C-2.12 32.36 -2.24 31.72 -2.37 31.06 C-3.36 25.95 -4.53 20.99 -6 16 C-6.34 14.33 -6.68 12.67 -7 11 C-7.33 10.01 -7.66 9.02 -8 8 C-8.14 7.18 -8.29 6.35 -8.44 5.5 C-8.9 2.77 -8.9 2.77 -11 0 C-6.48 -1.89 -4.36 -2.33 0 0 Z " fill="#8B8A98" transform="translate(22,11)"/>
<path d="M0 0 C2 0.75 2 0.75 4 3.75 C3.34 5.07 2.68 6.39 2 7.75 C0.68 7.75 -0.64 7.75 -2 7.75 C-2.08 8.49 -2.16 9.23 -2.25 10 C-3.18 13.39 -4.17 14.68 -7 16.75 C-10.19 17.06 -10.19 17.06 -13 16.75 C-13.33 16.42 -13.66 16.09 -14 15.75 C-13.84 11.5 -13.64 9.41 -10.62 6.31 C-8 4.75 -8 4.75 -5 4.75 C-4.88 4.11 -4.75 3.47 -4.62 2.81 C-4.42 2.13 -4.21 1.45 -4 0.75 C-2 -0.25 -2 -0.25 0 0 Z " fill="#9FA2AB" transform="translate(38,23.25)"/>
</g>
<g class="f f18">
<path d="M0 0 C2.26 2 4.18 4.26 6.12 6.56 C8.03 8.79 9.95 10.9 12 13 C14.84 13 17.24 12.6 20 12 C20.99 13.48 20.99 13.48 22 15 C21.72 16.07 21.44 17.14 21.16 18.25 C20.61 21.87 20.61 21.87 22.33 23.77 C24.33 25.6 26.38 27.32 28.5 29 C34.03 33.38 34.03 33.38 36 36 C35.97 39.94 35.97 39.94 35 43 C34.48 42.53 33.97 42.05 33.44 41.56 C30.34 39.57 27.62 39.41 24 39 C23.51 38.51 23.51 38.51 23 38 C21.84 37.84 20.69 37.67 19.5 37.5 C16 37 16 37 15 36 C14.03 36.02 13.06 36.04 12.06 36.06 C9 36 9 36 7 34 C5.01 33.6 3.01 33.26 1 33 C0.88 32.36 0.76 31.72 0.63 31.06 C-0.36 25.95 -1.53 20.99 -3 16 C-3.34 14.33 -3.68 12.67 -4 11 C-4.33 10.01 -4.66 9.02 -5 8 C-5.14 7.18 -5.29 6.35 -5.44 5.5 C-5.9 2.77 -5.9 2.77 -8 0 C-4.52 -1.16 -3.43 -1.24 0 0 Z " fill="#8A8A98" transform="translate(20,10)"/>
<path d="M0 0 C2 3 2 3 1.62 5.69 C1.32 6.83 1.32 6.83 1 8 C-0.32 8 -1.64 8 -3 8 C-3.08 8.74 -3.16 9.48 -3.25 10.25 C-4.17 13.61 -5.26 14.87 -8 17 C-10.62 17.88 -10.62 17.88 -13 18 C-15 16 -15 16 -15.44 13.69 C-14.81 9.85 -12.92 8.45 -10 6 C-9.01 5.67 -8.02 5.34 -7 5 C-6.3 3.68 -5.63 2.35 -5 1 C-3 0 -3 0 0 0 Z " fill="#9FA2AB" transform="translate(40,22)"/>
<path d="M0 0 C-2.14 2.14 -3.13 2.43 -6 3 C-6.66 2.01 -7.32 1.02 -8 0 C-4.71 -1.1 -3.29 -0.8 0 0 Z " fill="#9EA2AA" transform="translate(20,10)"/>
</g>
<g class="f f19">
<path d="M0 0 C2.83 1.24 5.57 2.64 8.31 4.06 C9.05 4.44 9.79 4.82 10.56 5.21 C12.37 6.13 14.19 7.06 16 8 C16.99 7.34 17.98 6.68 19 6 C19.99 6 20.98 6 22 6 C23.81 8.19 23.81 8.19 25 11 C24.61 11.76 24.22 12.53 23.81 13.31 C23.54 14.2 23.28 15.09 23 16 C24.25 18.15 25.75 19.96 27.32 21.88 C30.47 25.86 33.18 29.83 32.75 35 C32.5 35.66 32.26 36.32 32 37 C31.01 37 30.02 37 29 37 C28.34 36.34 27.68 35.68 27 35 C25.39 34.44 23.77 33.95 22.12 33.5 C19.55 32.79 17.24 32.13 14.87 30.91 C12.9 29.78 12.9 29.78 10 30 C9.34 29.34 8.68 28.68 8 28 C7.18 27.9 6.35 27.79 5.5 27.69 C4.68 27.46 3.85 27.23 3 27 C1.81 24.81 1.81 24.81 1 22 C-0.84 16.37 -2.95 11.01 -5.69 5.75 C-7 3 -7 3 -7 0 C-4.19 -1.41 -3.04 -0.86 0 0 Z " fill="#8A8A98" transform="translate(19,15)"/>
<path d="M0 0 C1.69 2.5 1.69 2.5 3 5 C1 8 1 8 -2 9 C-2.47 9.95 -2.95 10.9 -3.44 11.88 C-5.02 15.03 -5.87 16.43 -9 18 C-13.41 17.59 -13.41 17.59 -15 16 C-15.5 13.81 -15.5 13.81 -15 11 C-12.91 8.67 -10.61 6.72 -8 5 C-7.34 5 -6.68 5 -6 5 C-5.88 4.36 -5.75 3.72 -5.62 3.06 C-5.42 2.38 -5.21 1.7 -5 1 C-3 0 -3 0 0 0 Z " fill="#9FA2AB" transform="translate(41,21)"/>
</g>
<g class="f f20">
<path d="M0 0 C1.69 0.26 1.69 0.26 3.41 0.52 C6.14 1.11 8.05 1.92 10.5 3.19 C13.35 2.84 15.77 2.1 18.5 1.19 C19.82 2.84 21.14 4.49 22.5 6.19 C21.84 7.18 21.18 8.17 20.5 9.19 C20.88 12.21 22.17 14.57 23.56 17.25 C25.89 22.37 26.55 27.63 25.5 33.19 C24.51 33.85 23.52 34.51 22.5 35.19 C22.05 34.79 21.61 34.39 21.14 33.98 C15.23 28.77 15.23 28.77 8.14 25.44 C3.26 23.82 0.28 22.71 -2.12 18 C-2.66 16.84 -2.66 16.84 -3.21 15.65 C-5.53 11.23 -9.08 7.78 -12.5 4.19 C-11.05 0.44 -11.05 0.44 -8.78 -0.61 C-5.74 -0.88 -3.02 -0.48 0 0 Z " fill="#8A8A98" transform="translate(22.5,18.8125)"/>
<path d="M0 0 C1.65 1.65 3.3 3.3 5 5 C3.69 7 3.69 7 2 9 C1.01 9 0.02 9 -1 9 C-1.06 9.74 -1.12 10.48 -1.19 11.25 C-2.27 14.92 -3.77 16.02 -7 18 C-9.75 18.31 -9.75 18.31 -12 18 C-13 17 -13 17 -13.38 14.25 C-12.88 9.96 -11.29 8.68 -8 6 C-7.01 5.67 -6.02 5.34 -5 5 C-4.67 4.01 -4.34 3.02 -4 2 C-1.94 0.81 -1.94 0.81 0 0 Z " fill="#9FA3AB" transform="translate(40,20)"/>
</g>
<g class="f f21">
<path d="M0 0 C0.97 0.29 1.94 0.58 2.94 0.88 C3.93 0.21 4.92 -0.45 5.94 -1.12 C8.62 -0.75 8.62 -0.75 10.94 -0.12 C11.64 2.61 12.06 4.43 11.31 7.19 C10.9 10.12 11.26 11.03 12.38 13.69 C14.59 19.09 14.42 23.5 13.25 29.25 C11.61 32.53 10.3 32.71 6.94 33.88 C6.57 33.26 6.21 32.65 5.84 32.01 C2.72 26.99 0.58 24.11 -5.06 21.88 C-9 19.61 -11.74 17.2 -14.62 13.75 C-17.23 10.64 -19.08 9.01 -23.06 7.88 C-23.72 7.21 -24.38 6.55 -25.06 5.88 C-24.08 2.72 -23.05 1.87 -20.19 0.12 C-13.93 -2.27 -6.33 -2.05 0 0 Z " fill="#8A8A98" transform="translate(33.0625,21.125)"/>
<path d="M0 0 C1.68 0.29 3.34 0.62 5 1 C5.62 3.38 5.62 3.38 6 6 C5.34 6.66 4.68 7.32 4 8 C3.01 8 2.02 8 1 8 C0.92 8.74 0.84 9.48 0.75 10.25 C-0.18 13.64 -1.17 14.93 -4 17 C-7.19 17.31 -7.19 17.31 -10 17 C-11 16 -11 16 -11.44 13.25 C-10.97 9.74 -10.71 9.31 -8.19 7.12 C-5 5 -5 5 -2 5 C-1.86 4.36 -1.71 3.72 -1.56 3.06 C-1 1 -1 1 0 0 Z " fill="#A0A4AB" transform="translate(39,20)"/>
</g>
<g class="f f22">
<path d="M0 0 C2.47 2.48 2.47 2.48 5 5 C4.34 5.99 3.68 6.98 3 8 C3.2 10.27 3.2 10.27 3.88 12.69 C5.63 20.66 5.54 26.35 2.29 33.99 C1 36 1 36 -2.25 37.12 C-3.16 37.08 -4.06 37.04 -5 37 C-4.9 36.3 -4.79 35.6 -4.69 34.88 C-5.13 30.83 -7.09 28.65 -10 26 C-12.2 24.42 -14.44 22.96 -16.74 21.52 C-18.93 20.05 -20.68 18.46 -22.56 16.62 C-25.21 14.24 -26.87 13.62 -30.44 13.62 C-32.2 13.81 -32.2 13.81 -34 14 C-34.33 13.34 -34.66 12.68 -35 12 C-33.09 7.63 -31.99 5.6 -27.88 3.12 C-20.65 0.64 -14.27 0.76 -6.98 2.72 C-4.75 3.22 -4.75 3.22 -1.94 1.62 C-0.98 0.82 -0.98 0.82 0 0 Z " fill="#8A8A98" transform="translate(41,19)"/>
<path d="M0 0 C1.65 1.65 3.3 3.3 5 5 C3.69 7 3.69 7 2 9 C1.01 9 0.02 9 -1 9 C-1.08 9.74 -1.16 10.48 -1.25 11.25 C-2.18 14.64 -3.17 15.93 -6 18 C-9.19 18.31 -9.19 18.31 -12 18 C-12.33 17.67 -12.66 17.34 -13 17 C-12.84 12.75 -12.64 10.66 -9.62 7.56 C-7 6 -7 6 -4 6 C-4 4.68 -4 3.36 -4 2 C-2.68 1.34 -1.36 0.68 0 0 Z " fill="#A0A3AB" transform="translate(41,19)"/>
</g>
<g class="f f23">
<path d="M0 0 C1.94 0.87 1.94 0.87 3.31 2.62 C4.15 5.63 3.1 7.05 1.94 9.88 C2.6 10.87 3.26 11.86 3.94 12.88 C5.61 19.7 4.44 24.76 0.94 30.88 C-0.05 31.53 -1.04 32.2 -2.06 32.88 C-2.73 32.06 -2.73 32.06 -3.42 31.23 C-8.6 24.75 -8.6 24.75 -16 21.59 C-18.89 20.59 -19.73 18.94 -21.44 16.44 C-24.26 12.59 -26.18 10.71 -31.06 9.88 C-31.06 8.88 -31.06 7.89 -31.06 6.88 C-26.34 2.43 -22.02 0.59 -15.56 0.69 C-14.19 0.7 -14.19 0.7 -12.78 0.71 C-10.06 0.88 -10.06 0.88 -7.41 1.51 C-4.1 2.02 -3.23 -0.2 0 0 Z " fill="#8B8998" transform="translate(41.0625,20.125)"/>
<path d="M0 0 C1.94 0.19 1.94 0.19 4 1 C5.25 3.06 5.25 3.06 6 5 C4 8 4 8 1 9 C0.69 9.78 0.38 10.57 0.06 11.38 C-1.19 14.46 -2.07 15.45 -5 17 C-8.25 17.19 -8.25 17.19 -11 17 C-11.81 14.88 -11.81 14.88 -12 12 C-9.71 8.5 -8.24 6.39 -4.19 5.12 C-3.1 5.06 -3.1 5.06 -2 5 C-1.86 4.36 -1.71 3.72 -1.56 3.06 C-1 1 -1 1 0 0 Z " fill="#A0A4AB" transform="translate(39,20)"/>
</g>
<g class="f f24">
<path d="M0 0 C2.67 0.8 2.67 0.8 5.42 -1.54 C7.48 -1.41 7.48 -1.41 9.42 -0.54 C10.79 1.27 10.79 1.27 11.42 3.46 C10.89 4.42 10.89 4.42 10.36 5.4 C10.05 6.08 9.74 6.76 9.42 7.46 C10.7 10.02 10.7 10.02 12.42 12.46 C14.67 18.4 13.71 24.73 11.42 30.46 C9.3 29.51 7.66 28.71 6.04 27.02 C2.01 23.15 -3.35 21.85 -8.63 20.5 C-11.37 19.04 -11.51 17.33 -12.58 14.46 C-14.67 11.84 -14.67 11.84 -17.08 9.34 C-19.5 6.76 -21.62 4.4 -23.58 1.46 C-15.95 -4.59 -8.64 -2.85 0 0 Z " fill="#8B8A98" transform="translate(32.58203125,22.5390625)"/>
<path d="M0 0 C2 0.81 2 0.81 3.25 2.88 C3.5 3.51 3.75 4.15 4 4.81 C3.01 6.3 3.01 6.3 2 7.81 C1.01 7.81 0.02 7.81 -1 7.81 C-1.25 8.74 -1.49 9.67 -1.75 10.62 C-3.1 14.06 -3.74 15.18 -7 16.81 C-10.25 17 -10.25 17 -13 16.81 C-13.88 14.75 -13.88 14.75 -14 11.81 C-12.35 9.13 -10.43 6.82 -8 4.81 C-7.01 4.81 -6.02 4.81 -5 4.81 C-4.88 4.17 -4.75 3.53 -4.62 2.88 C-4.42 2.19 -4.21 1.51 -4 0.81 C-2 -0.19 -2 -0.19 0 0 Z " fill="#9FA3AC" transform="translate(40,21.1875)"/>
</g>
<g class="f f25">
<path d="M0 0 C1.53 1.93 2.69 3.87 3.82 6.05 C5 8.3 5 8.3 8 10 C8.99 9.34 9.98 8.68 11 8 C11.99 8 12.98 8 14 8 C14.99 9.48 14.99 9.48 16 11 C15.73 11.93 15.46 12.86 15.19 13.81 C14.64 16.95 14.64 16.95 16.38 18.65 C19.13 21 22 23 25 25 C24.66 30.38 24.31 34.53 21 39 C19.87 38.4 18.73 37.8 17.56 37.19 C12.44 34.63 7.12 32.72 1.54 31.43 C-4.43 29.9 -4.43 29.9 -6.16 27.17 C-6.91 25.13 -7.48 23.11 -8 21 C-9.04 18.73 -10.19 16.69 -11.5 14.56 C-13.49 11.17 -14.76 7.72 -16 4 C-4.27 -1.19 -4.27 -1.19 0 0 Z " fill="#8A8A98" transform="translate(26,14)"/>
<path d="M0 0 C2 3 2 3 1.62 5.69 C1.32 6.83 1.32 6.83 1 8 C-0.32 8 -1.64 8 -3 8 C-3.08 8.74 -3.16 9.48 -3.25 10.25 C-4.18 13.64 -5.17 14.93 -8 17 C-11.19 17.31 -11.19 17.31 -14 17 C-15 16 -15 16 -15.38 13.75 C-14.84 9.84 -12.96 8.48 -10 6 C-9.01 5.67 -8.02 5.34 -7 5 C-6.3 3.68 -5.63 2.35 -5 1 C-3 0 -3 0 0 0 Z " fill="#9FA3AB" transform="translate(40,22)"/>
<path d="M0 0 C0 0.33 0 0.66 0 1 C-1 1.27 -1 1.27 -2.01 1.55 C-6.73 2.9 -10.93 4.15 -15 7 C-15.33 6.01 -15.66 5.02 -16 4 C-5.63 -0.59 -5.63 -0.59 0 0 Z " fill="#9CA1A8" transform="translate(26,14)"/>
</g>
<g class="f f26">
<path d="M0 0 C0.66 0.66 1.32 1.32 2 2 C1.5 2.52 1.01 3.03 0.5 3.56 C-1.55 6.89 -1.42 9.16 -1 13 C-0.04 15.13 -0.04 15.13 2 16 C2.99 15.84 3.98 15.67 5 15.5 C8 15 8 15 9.94 16.06 C11.5 18.91 10.75 20.94 10 24 C12.13 26.19 12.13 26.19 15 28 C19.29 27.91 21.81 26.82 25 24 C26.61 25.61 26.21 27.34 26.25 29.56 C26.2 34.72 25.24 38.36 23 43 C22.01 43.66 21.02 44.32 20 45 C19.34 44.34 18.68 43.68 18 43 C15.73 42.4 13.43 41.9 11.12 41.44 C3.58 39.92 3.58 39.92 0 39 C-0.83 38.83 -1.66 38.66 -2.51 38.49 C-5.18 37.86 -7.53 37.21 -10 36 C-11.56 32.44 -11.56 32.44 -12 29 C-12.33 28.34 -12.66 27.68 -13 27 C-13.14 26.24 -13.29 25.47 -13.44 24.69 C-13.91 22 -13.91 22 -15 19.62 C-16 17 -16 17 -16.44 13.38 C-17.02 9.89 -17.4 9.15 -20 7 C-20 6.34 -20 5.68 -20 5 C-13.15 1.35 -7.92 -0.45 0 0 Z " fill="#8A8A97" transform="translate(30,8)"/>
<path d="M0 0 C2.06 0.69 2.06 0.69 4 2 C4.81 4 4.81 4 5 6 C4.67 6.66 4.34 7.32 4 8 C2.68 8 1.36 8 0 8 C-0.04 8.72 -0.08 9.44 -0.12 10.19 C-1.39 14.24 -3.5 15.71 -7 18 C-9.88 17.81 -9.88 17.81 -12 17 C-12.49 10.66 -12.49 10.66 -10.25 7.62 C-8 6 -8 6 -5.88 5.5 C-5.26 5.34 -4.64 5.17 -4 5 C-2.85 3.03 -2.85 3.03 -2 1 C-1.34 0.67 -0.68 0.34 0 0 Z " fill="#9FA2AB" transform="translate(36,23)"/>
<path d="M0 0 C0 0.99 0 1.98 0 3 C-1.32 2.67 -2.64 2.34 -4 2 C-4.33 3.32 -4.66 4.64 -5 6 C-5.99 5.67 -6.98 5.34 -8 5 C-8 4.34 -8 3.68 -8 3 C-2.25 0 -2.25 0 0 0 Z " fill="#9FA1AB" transform="translate(18,10)"/>
<path d="M0 0 C3.38 -0.12 3.38 -0.12 7 0 C7.66 0.66 8.32 1.32 9 2 C8 3 8 3 4.94 3.06 C3.97 3.04 3 3.02 2 3 C2 2.34 2 1.68 2 1 C1.34 0.67 0.68 0.34 0 0 Z " fill="#9FA2AB" transform="translate(23,8)"/>
</g>
<g class="f f27">
<path d="M0 0 C-1 2 -2 4 -3 6 C-3.41 10.69 -3.41 10.69 -1.88 15 C0.1 16.3 0.1 16.3 3 15.5 C6 15 6 15 7.94 16.06 C9.5 18.91 8.75 20.94 8 24 C10.13 26.19 10.13 26.19 13 28 C17.29 27.91 19.81 26.82 23 24 C25.83 29.82 24.63 34.99 23 41 C22.38 42.35 21.72 43.7 21 45 C20.48 44.69 19.97 44.38 19.44 44.06 C16.34 42.71 13.33 42.44 10 42 C9.51 41.51 9.51 41.51 9 41 C6.67 40.64 4.34 40.31 2 40 C-1.52 39.44 -2.96 39.03 -6 37 C-7.99 36.61 -9.99 36.27 -12 36 C-12.31 34.89 -12.62 33.77 -12.94 32.62 C-13.82 29.21 -13.82 29.21 -15 27 C-15.36 25.34 -15.69 23.67 -16 22 C-16.45 19.64 -16.91 17.29 -17.38 14.94 C-17.61 13.73 -17.84 12.52 -18.09 11.28 C-18.96 8.14 -19.86 6.4 -22 4 C-14.76 -0.63 -8.44 -0.43 0 0 Z " fill="#8A8998" transform="translate(31,9)"/>
<path d="M0 0 C2.06 0.69 2.06 0.69 4 2 C4.88 4 4.88 4 5 6 C4.34 6.66 3.68 7.32 3 8 C2.01 8 1.02 8 0 8 C-0.08 8.74 -0.16 9.48 -0.25 10.25 C-1.18 13.68 -2.11 14.94 -5 17 C-8.75 17.25 -8.75 17.25 -12 17 C-12.72 10.92 -12.72 10.92 -10.77 8.42 C-8.1 6.13 -6.57 5 -3 5 C-2.88 4.36 -2.75 3.72 -2.62 3.06 C-2.42 2.38 -2.21 1.7 -2 1 C-1.34 0.67 -0.68 0.34 0 0 Z " fill="#9FA2AB" transform="translate(35,24)"/>
<path d="M0 0 C-0.33 0.99 -0.66 1.98 -1 3 C-1.66 3 -2.32 3 -3 3 C-3 2.34 -3 1.68 -3 1 C-3.66 1 -4.32 1 -5 1 C-5 1.99 -5 2.98 -5 4 C-6.65 3.67 -8.3 3.34 -10 3 C-10.33 4.32 -10.66 5.64 -11 7 C-11.99 6.01 -12.98 5.02 -14 4 C-9.23 1.29 -5.66 -0.57 0 0 Z " fill="#9EA1AA" transform="translate(23,9)"/>
<path d="M0 0 C1.98 0 3.96 0 6 0 C5.67 0.99 5.34 1.98 5 3 C3.35 3 1.7 3 0 3 C0 2.01 0 1.02 0 0 Z " fill="#9EA1AA" transform="translate(25,9)"/>
</g>
</svg>
